<svg width="92" height="92" viewBox="0 0 92 92" fill="none" xmlns="http://www.w3.org/2000/svg">
<circle cx="46" cy="46" r="46" fill="white"/>
<path d="M60 50.1538V45.3077C60 43.6552 59.3363 42.0704 58.1548 40.9019C56.9733 39.7334 55.3709 39.0769 53.7 39.0769H50.9C50.343 39.0769 49.8089 38.8581 49.4151 38.4686C49.0212 38.0791 48.8 37.5508 48.8 37V34.2308C48.8 32.5783 48.1363 30.9934 46.9548 29.825C45.7733 28.6565 44.1709 28 42.5 28H39M39 51.5385H53M39 57.0769H46M43.2 28H34.1C32.9408 28 32 28.9305 32 30.0769V61.9231C32 63.0695 32.9408 64 34.1 64H57.9C59.0592 64 60 63.0695 60 61.9231V44.6154C60 40.2087 58.23 35.9825 55.0794 32.8665C51.9288 29.7505 47.6556 28 43.2 28Z" stroke="black" stroke-width="1.5" stroke-linecap="round" stroke-linejoin="round"/>
</svg>
